Coordinates
version=1
nRows=17
nColumns=40
inDegrees=yes

Units are S.I. units (second, meters, Newtons, ...)
Angles are in degrees.

endheader
time	pelvis_tilt	pelvis_list	pelvis_rotation	pelvis_tx	pelvis_ty	pelvis_tz	hip_flexion_r	hip_adduction_r	hip_rotation_r	knee_angle_r	knee_angle_r_beta	ankle_angle_r	subtalar_angle_r	mtp_angle_r	hip_flexion_l	hip_adduction_l	hip_rotation_l	knee_angle_l	knee_angle_l_beta	ankle_angle_l	subtalar_angle_l	mtp_angle_l	lumbar_extension	lumbar_bending	lumbar_rotation	arm_flex_r	arm_add_r	arm_rot_r	elbow_flex_r	pro_sup_r	wrist_flex_r	wrist_dev_r	arm_flex_l	arm_add_l	arm_rot_l	elbow_flex_l	pro_sup_l	wrist_flex_l	wrist_dev_l
     18.82000000	     -4.43338747	     -4.04945408	      5.20615002	      0.93492580	      0.92455810	      0.49064664	     -0.77894516	     -0.05143807	    -12.27369564	     14.45647210	     14.45647210	     17.38936175	      2.60384797	     -1.26312766	     23.90242444	     -8.38356957	      0.51542185	     22.68738191	     22.68738191	      6.61743542	     -7.90703244	     -1.19822541	     -6.91132182	      3.87412989	      3.44195996	     55.61957714	    -16.14481531	     -5.29562852	     79.46687252	     44.37148107	      0.00000000	      0.00000000	     -1.09238909	    -13.72286712	     17.53288822	     27.71619445	     44.99156551	      0.00000000	      0.00000000
     18.84114286	     -4.51040735	     -4.10946047	      4.82869017	      0.93513726	      0.92537571	      0.48562175	     -0.83249007	     -0.43202304	    -12.11461088	     14.70223171	     14.70223171	     17.06134429	      2.84551845	     -1.25611295	     23.55175588	     -8.20915802	      0.24391404	     22.71205003	     22.71205003	      7.00837401	     -8.16900362	     -1.29056338	     -6.87489849	      4.04254246	      3.23212404	     54.55023441	    -15.72166059	     -5.12906655	     79.12881362	     44.37539884	      0.00000000	      0.00000000	      0.21168245	    -14.08410045	     17.37004576	     28.04105373	     45.03842963	      0.00000000	      0.00000000
     18.86228571	     -4.61977146	     -3.93962447	      4.39816743	      0.93549304	      0.92625127	      0.48045164	     -0.65941414	     -1.19959720	    -12.23666096	     15.37513602	     15.37513602	     16.81580336	      3.53975990	     -1.60723330	     23.01757978	     -7.78354681	     -0.16032147	     22.43920899	     22.43920899	      7.37471110	     -8.36002722	     -1.25001409	     -6.73813644	      3.86622197	      3.36343151	     52.80570842	    -15.74099137	     -5.43786561	     78.41673307	     44.41864132	      0.00000000	      0.00000000	      1.66272360	    -14.22343393	     16.82239246	     28.19055675	     45.15391467	      0.00000000	      0.00000000
     18.88342857	     -4.60637143	     -4.08094233	      4.07657588	      0.93597946	      0.92723093	      0.47537402	     -0.76253445	     -1.49771563	    -12.08441831	     15.70234080	     15.70234080	     16.42945637	      3.73754335	     -1.59857923	     22.56589262	     -7.68591449	     -0.42478867	     22.44502384	     22.44502384	      7.71652845	     -8.53880418	     -1.33602794	     -6.75462267	      4.13146744	      2.97072081	     51.09261951	    -15.18076635	     -5.20703066	     77.94485532	     44.42180464	      0.00000000	      0.00000000	      2.96964919	    -14.44461414	     16.66677870	     28.52946579	     45.19957084	      0.00000000	      0.00000000
     18.90457143	     -4.68830981	     -3.96324983	      3.69716523	      0.93665482	      0.92817055	      0.47020121	     -0.58460008	     -2.19144208	    -12.09112710	     16.42315870	     16.42315870	     16.12207495	      4.18825038	     -1.89344577	     21.98275625	     -7.31459731	     -0.88649490	     22.11281609	     22.11281609	      8.02292653	     -8.53771075	     -1.33283948	     -6.56676841	      4.02841546	      2.94826524	     48.66032780	    -15.09217127	     -5.33883440	     76.96773627	     44.45936968	      0.00000000	      0.00000000	      4.35743839	    -14.51701830	     16.20805733	     28.76904854	     45.29593171	      0.00000000	      0.00000000
     18.92571429	     -4.67656339	     -3.95304044	      3.33539687	      0.93739982	      0.92907486	      0.46496799	     -0.49153523	     -2.81184434	    -12.26700859	     17.13646410	     17.13646410	     15.52414281	      4.90365141	     -3.14141129	     21.43224407	     -7.00871175	     -1.08295354	     22.00218068	     22.00218068	      8.36577360	     -8.84251209	     -1.11538268	     -6.52723502	      4.07497237	      3.09135839	     45.92498645	    -14.85151666	     -6.31240812	     76.13805733	     44.58129122	      0.00000000	      0.00000000	      6.34386534	    -13.91259656	     13.79043298	     27.85083504	     45.70726398	      0.00000000	      0.00000000
     18.94685714	     -4.51330894	     -4.16392611	      3.01549004	      0.93834292	      0.93002731	      0.45987160	     -0.55889953	     -3.08886592	    -12.03923704	     17.83072518	     17.83072518	     15.13548002	      4.99684761	     -3.22093824	     20.83063035	     -6.97531373	     -1.27588357	     22.05098392	     22.05098392	      8.70900254	     -9.02951982	     -1.19297438	     -6.63620983	      4.47050190	      2.64373339	     43.25581833	    -14.23632841	     -5.93104200	     75.16407306	     44.59176072	      0.00000000	      0.00000000	      7.53653968	    -13.96307343	     13.66651907	     28.32519890	     45.74527110	      0.00000000	      0.00000000
     18.96800000	     -4.59241795	     -4.06637119	      2.57280234	      0.93915101	      0.93044662	      0.45467144	      0.10501170	     -3.88378994	    -11.79146374	     19.41673429	     19.41673429	     14.85190032	      5.05805805	     -3.89511096	     20.41119955	     -6.59562512	     -1.62369933	     22.01767405	     22.01767405	      8.99731392	     -9.32516979	     -1.12248015	     -6.45728470	      4.36306226	      2.88555869	     40.05604097	    -14.53079263	     -5.76887817	     72.96484468	     44.65531493	      0.00000000	      0.00000000	      8.98802668	    -13.83389728	     13.29776342	     29.08663872	     45.82237209	      0.00000000	      0.00000000
     18.98914286	     -4.49872262	     -4.15634599	      2.17516913	      0.93994478	      0.93073626	      0.44948273	      0.54054062	     -4.43466708	    -11.48740047	     20.76126262	     20.76126262	     13.36311988	      4.71119494	     -7.78611706	     20.05623717	     -6.37286833	     -1.64067011	     22.40592725	     22.40592725	      9.62338521	     -9.88752161	     -0.34979005	     -6.50100248	      4.57584219	      2.58026071	     37.50138787	    -14.03009706	     -5.47787819	     69.43751876	     44.84511889	      0.00000000	      0.00000000	     10.32205847	    -13.31721431	     10.57171891	     29.46523707	     46.17772401	      0.00000000	      0.00000000
     19.01028571	     -4.38024534	     -4.22806733	      1.73112462	      0.94070525	      0.93075124	      0.44436321	      1.39876567	     -5.09778899	    -11.03938236	     23.03634516	     23.03634516	     12.98380367	      4.45446696	     -8.61580493	     19.70931728	     -6.16371652	     -1.77285898	     22.84017218	     22.84017218	      9.99283883	    -10.48562022	     -0.35982627	     -6.65031256	      4.77502406	      2.68116583	     34.13938501	    -13.98176996	     -5.22206725	     67.18543576	     44.90420410	      0.00000000	      0.00000000	     11.74565059	    -13.12003713	     10.38015711	     30.22023534	     46.22183168	      0.00000000	      0.00000000
     19.03142857	     -4.27123383	     -4.31485874	      1.25798551	      0.94126387	      0.93032320	      0.43930254	      2.58555992	     -5.76853349	    -10.39107720	     25.82053429	     25.82053429	     12.35332957	      3.82595478	    -10.02710844	     19.52245971	     -5.95287311	     -1.79307335	     23.52563476	     23.52563476	     10.45148134	    -11.31311584	     -0.25690131	     -6.80462693	      5.02547984	      2.91410747	     30.79990470	    -13.99279600	     -5.00030569	     64.21030460	     44.98988959	      0.00000000	      0.00000000	     13.25931178	    -12.80800258	     10.17912857	     31.03189537	     46.26692279	      0.00000000	      0.00000000
     19.05257143	     -4.09395991	     -4.44050374	      0.80791278	      0.94171802	      0.92961575	      0.43438949	      3.74920742	     -6.27984386	     -9.46603558	     28.44653702	     28.44653702	      9.89091235	      1.84245358	    -16.00477670	     19.44322231	     -5.77395760	     -1.69783267	     24.55325148	     24.55325148	     11.47210370	    -12.05124449	      1.06041556	     -6.98093534	      5.28988734	      2.37392295	     28.82931276	    -13.00143701	     -4.81631705	     57.79989196	     45.22734577	      0.00000000	      0.00000000	     14.41032824	    -12.71163328	      9.29722991	     31.67857831	     46.34011345	      0.00000000	      0.00000000
     19.07371429	     -3.92184374	     -4.54656986	      0.31419273	      0.94195969	      0.92842876	      0.42961554	      5.43641855	     -6.82640971	     -8.33180262	     32.06577764	     32.06577764	      8.39761540	     -0.06520473	    -18.74992176	     19.45794599	     -5.60220692	     -1.69002044	     25.70637693	     25.70637693	     12.27289789	    -12.87567824	      1.60946710	     -7.28372388	      5.57028610	      2.38900118	     25.92083739	    -12.77436698	     -4.47083365	     53.35225263	     45.37363890	      0.00000000	      0.00000000	     15.74593338	    -12.46811514	      8.69182234	     32.73216724	     46.38857715	      0.00000000	      0.00000000
     19.09485714	     -3.71393908	     -4.66107415	     -0.18615366	      0.94204299	      0.92684554	      0.42508229	      7.39895097	     -7.30921828	     -7.10467645	     36.22660371	     36.22660371	      7.20528261	     -1.81340815	    -19.82334185	     19.50754640	     -5.46481294	     -1.70923277	     26.97193735	     26.97193735	     12.99054643	    -13.72393075	      1.69130989	     -7.69635711	      5.86011153	      2.78696700	     22.55074857	    -12.88171038	     -4.22614580	     49.68141069	     45.48273922	      0.00000000	      0.00000000	     17.30996244	    -12.14547132	      8.43047925	     33.87092959	     46.42929086	      0.00000000	      0.00000000
     19.11600000	     -3.55509008	     -4.71956467	     -0.68752254	      0.94190001	      0.92497460	      0.42081853	      9.56671717	     -7.72163193	     -5.77767772	     40.50062332	     40.50062332	      5.56459738	     -3.84179507	    -21.07347628	     19.70033378	     -5.30412600	     -1.82470480	     28.39343097	     28.39343097	     14.13123716	    -14.21212896	      2.69130285	     -8.02219913	      6.09321196	      2.40051123	     20.52636680	    -12.18112975	     -4.18673166	     43.40108467	     45.70763188	      0.00000000	      0.00000000	     18.44294008	    -12.24270090	      7.96979004	     34.96825021	     46.44953698	      0.00000000	      0.00000000
     19.13714286	     -3.40151984	     -4.71806423	     -1.20072950	      0.94165940	      0.92288626	      0.41683841	     11.88386859	     -8.12584343	     -4.51200309	     44.92851217	     44.92851217	      4.17311919	     -5.32966728	    -20.99384025	     19.81895420	     -5.10148179	     -2.01619632	     29.61813139	     29.61813139	     14.74837167	    -14.90666886	      2.52574319	     -8.46468831	      6.27960390	      2.57675315	     16.97859365	    -12.23082917	     -4.00842452	     40.76117465	     45.77752616	      0.00000000	      0.00000000	     19.89032205	    -12.13871329	      7.71687049	     36.10261808	     46.49743075	      0.00000000	      0.00000000
     19.15828571	     -3.23569125	     -4.74673225	     -1.72085998	      0.94139134	      0.92083070	      0.41335678	     14.18402525	     -8.24694832	     -3.09244183	     49.14588846	     49.14588846	      2.73330190	     -6.96870960	    -20.26068429	     19.89372218	     -4.95502410	     -2.16497941	     30.80359310	     30.80359310	     15.49823235	    -15.48299582	      2.44910283	     -8.85377173	      6.46651209	      2.81496302	     13.59787253	    -12.27015311	     -3.85292132	     37.69619710	     45.86718539	      0.00000000	      0.00000000	     21.35957585	    -12.08943355	      7.44723668	     37.30109592	     46.54736463	      0.00000000	      0.00000000
